<svg width="22.8" height="21.6" viewBox="0 0 19 18" fill="none" xmlns="http://www.w3.org/2000/svg">
<path d="M18.4258 8.095L1.42576 0.0949962C1.2546 0.0140123 1.06394 -0.0166567 0.87601 0.00656362C0.688081 0.029784 0.510622 0.105937 0.364315 0.226148C0.218008 0.346359 0.108879 0.505676 0.0496467 0.685531C-0.00958555 0.865386 -0.0164815 1.05837 0.0297628 1.242L1.96876 9L0.0297628 16.758C-0.0169142 16.9417 -0.0103198 17.1349 0.0487746 17.315C0.107869 17.495 0.21702 17.6546 0.363459 17.7749C0.509899 17.8952 0.687572 17.9713 0.875696 17.9944C1.06382 18.0174 1.25461 17.9864 1.42576 17.905L18.4258 9.905C18.5976 9.82424 18.7428 9.69625 18.8446 9.53599C18.9463 9.37574 19.0004 9.18983 19.0004 9C19.0004 8.81017 18.9463 8.62426 18.8446 8.464C18.7428 8.30374 18.5976 8.17575 18.4258 8.095ZM2.48076 15.197L3.31976 11.84L8.99976 9L3.31976 6.16L2.48076 2.803L15.6508 9L2.48076 15.197Z" fill="#798897"/>
</svg>
